# xmcd
#
# Track frame offsets:
#	150
#	16186
#	32412
#	47381
#	64607
#	79449
#	92888
#	114421
#	130869
#	145319
#	163282
#	177397
#	193211
#
# Disc length: 2835 seconds
#
# Revision: 0
# Processed by: cddbd v1.5.2PL0 Copyright (c) Steve Scherf et al.
# Submitted via: EasyCDDAExtractor 10.0.6.1
#
DISCID=af0b110d
DTITLE=Beastie Boys - The Mix-Up
DYEAR=2007
DGENRE=Hip-Hop
TTITLE0=B for My Name
TTITLE1=14th St. Break
TTITLE2=Suco de Tangerina
TTITLE3=The gala Event
TTITLE4=Electric Worm
TTITLE5=Freaky Hijiki
TTITLE6=Off the Grid
TTITLE7=The Rat Cage
TTITLE8=The Melee
TTITLE9=Dramastically Different
TTITLE10=The Cousin of Death
TTITLE11=The Kangaroo Rat
TTITLE12=Biscuits and Butter
EXTD=
EXTT0=
EXTT1=
EXTT2=
EXTT3=
EXTT4=
EXTT5=
EXTT6=
EXTT7=
EXTT8=
EXTT9=
EXTT10=
EXTT11=
EXTT12=
PLAYORDER=
